<?xml version="1.0" standalone="no"?>
<!DOCTYPE svg PUBLIC "-//W3C//DTD SVG 20010904//EN"
 "http://www.w3.org/TR/2001/REC-SVG-20010904/DTD/svg10.dtd">
<svg version="1.0" xmlns="http://www.w3.org/2000/svg"
 width="980.000000pt" height="980.000000pt" viewBox="0 0 980.000000 980.000000"
 preserveAspectRatio="xMidYMid meet">

<g transform="translate(0.000000,980.000000) scale(0.100000,-0.100000)"
fill="#000000" stroke="none">
<path d="M4555 9788 c-1172 -85 -2275 -590 -3110 -1423 -642 -641 -1082 -1417
-1304 -2300 -88 -351 -141 -788 -141 -1162 1 -1053 339 -2073 969 -2918 959
-1287 2466 -2024 4051 -1982 572 15 1071 114 1630 322 114 42 346 147 480 216
1215 630 2106 1715 2484 3025 177 615 229 1309 146 1954 -183 1414 -967 2669
-2167 3466 -809 538 -1754 820 -2726 813 -106 -1 -246 -6 -312 -11z m2192
-2341 l593 -592 0 -735 1 -735 190 -255 c105 -140 204 -275 220 -300 l30 -44
-3 -876 -3 -877 -30 -48 c-21 -35 -45 -56 -80 -74 -45 -23 -63 -26 -187 -29
l-137 -4 -3 -361 c-4 -321 -6 -368 -22 -411 -58 -153 -165 -262 -314 -319
l-57 -22 -2000 -3 c-1434 -2 -2019 1 -2067 9 -197 32 -356 183 -403 381 -11
49 -15 138 -15 394 l0 332 -128 4 c-115 3 -134 6 -184 31 -65 32 -103 77 -117
138 -15 66 -15 1724 1 1752 10 20 87 125 342 467 l86 115 0 1095 c0 901 3
1107 14 1161 40 188 186 338 374 383 47 12 333 14 1682 15 l1625 1 592 -593z"/>
<path d="M2863 7875 c-102 -31 -176 -96 -222 -195 l-26 -55 -3 -1387 -2 -1388
2290 0 2290 0 0 950 0 950 -323 0 c-187 0 -348 5 -383 11 -151 27 -308 145
-372 280 -57 119 -62 160 -62 522 l0 327 -1572 -1 c-1272 0 -1581 -3 -1615
-14z m3623 -1526 c25 -26 23 -88 -5 -110 -22 -18 -73 -19 -1580 -19 -1739 0
-1601 -6 -1601 70 0 30 6 43 26 59 l27 21 1558 -2 c1425 -3 1560 -4 1575 -19z
m-1 -499 c23 -26 23 -74 0 -100 -18 -20 -27 -20 -1583 -20 -1443 0 -1567 1
-1584 17 -23 20 -24 80 -1 105 15 17 78 18 1583 18 1558 0 1567 0 1585 -20z
m-20 -476 c24 -10 46 -60 39 -89 -15 -59 91 -55 -1606 -55 -1545 0 -1558 0
-1578 20 -12 12 -20 33 -20 55 0 22 8 43 20 55 20 20 33 20 1574 20 855 0
1562 -3 1571 -6z"/>
<path d="M6200 7509 c0 -251 2 -283 20 -343 36 -114 135 -213 251 -249 47 -15
93 -17 332 -15 l277 3 -440 440 -440 440 0 -276z"/>
<path d="M2352 4993 l-103 -138 102 -3 c56 -1 103 -1 106 1 2 2 2 66 1 141
l-3 137 -103 -138z"/>
<path d="M7340 4990 l0 -140 106 0 106 0 -38 53 c-78 109 -167 227 -170 227
-2 0 -4 -63 -4 -140z"/>
<path d="M2170 3892 l0 -809 26 -24 26 -24 2677 -3 2678 -2 27 21 26 20 0 815
0 814 -2730 0 -2730 0 0 -808z m4389 561 c12 -14 21 -32 21 -39 0 -29 -25 -64
-53 -74 -19 -6 -158 -10 -368 -10 l-339 0 0 -195 0 -195 294 0 c282 0 294 -1
320 -21 33 -26 35 -73 4 -106 l-21 -23 -299 0 -298 0 0 -246 c0 -154 -4 -253
-11 -265 -25 -48 -105 -44 -128 7 -8 18 -11 189 -11 582 0 496 2 560 16 580 9
13 24 26 34 30 11 4 199 6 419 4 l400 -2 20 -27z m-2559 12 c164 -43 350 -191
350 -279 0 -14 -10 -36 -21 -47 -36 -36 -80 -21 -159 56 -45 42 -92 77 -137
98 -65 31 -73 32 -188 32 -118 0 -121 -1 -198 -37 -208 -100 -317 -320 -262
-533 23 -88 51 -140 112 -206 94 -101 212 -153 348 -153 141 0 248 50 356 165
52 55 80 62 123 28 44 -35 36 -74 -29 -147 -117 -129 -265 -194 -440 -195
-159 -1 -291 45 -414 144 -216 175 -282 499 -154 754 105 207 316 333 558 334
57 1 124 -5 155 -14z m1170 -16 c147 -69 240 -248 210 -403 -32 -164 -156
-283 -321 -306 -35 -5 -110 -10 -166 -10 l-103 0 0 -217 c-1 -156 -4 -223 -13
-234 -31 -41 -80 -46 -119 -11 -17 14 -18 55 -18 594 0 570 0 578 21 599 19
19 29 20 237 17 209 -3 219 -4 272 -29z"/>
<path d="M4790 4106 l0 -225 133 3 c144 3 188 15 240 64 116 110 81 305 -65
366 -28 12 -73 16 -173 16 l-135 0 0 -224z"/>
<path d="M2612 2527 l3 -352 33 -67 c38 -77 92 -130 171 -167 l56 -26 2025 0
2025 0 56 26 c79 37 133 90 171 167 l33 67 3 352 3 353 -2291 0 -2291 0 3
-353z"/>
</g>
</svg>
