<?xml version="1.0" standalone="no"?>
<!DOCTYPE svg PUBLIC "-//W3C//DTD SVG 20010904//EN"
 "http://www.w3.org/TR/2001/REC-SVG-20010904/DTD/svg10.dtd">
<svg version="1.0" xmlns="http://www.w3.org/2000/svg"
 width="512.000000pt" height="512.000000pt" viewBox="0 0 512.000000 512.000000"
 preserveAspectRatio="xMidYMid meet">

<g transform="translate(0.000000,512.000000) scale(0.100000,-0.100000)"
fill="#000000" stroke="none">
<path d="M1515 4120 c-118 -17 -205 -97 -253 -236 -19 -52 -22 -82 -22 -212
l0 -152 190 0 190 0 0 120 0 120 1315 0 1315 0 0 -815 0 -815 -107 0 -108 0 0
-185 0 -185 105 0 c145 1 241 14 293 39 61 29 124 95 156 161 l26 55 3 927 2
928 -30 60 c-43 84 -92 135 -165 170 l-63 30 -1398 -1 c-770 -1 -1422 -5
-1449 -9z"/>
<path d="M1869 3256 c-7 -6 -501 -16 -844 -17 -176 -1 -331 -6 -345 -11 -72
-27 -136 -94 -162 -173 -21 -60 -19 -1807 1 -1878 19 -68 91 -140 162 -163 51
-17 141 -18 1457 -20 1388 -1 1404 -1 1445 19 65 31 106 66 134 115 53 89 53
89 53 1025 0 836 -1 869 -19 905 -41 79 -117 158 -163 168 -55 12 -129 14
-768 21 -371 4 -736 8 -811 10 -75 1 -138 1 -140 -1z m-208 -431 c75 -37 156
-106 180 -153 19 -39 21 -55 17 -141 -4 -75 -1 -103 9 -117 22 -30 7 -118 -32
-189 -39 -71 -56 -128 -60 -206 l-2 -59 76 -41 c167 -90 347 -223 375 -278 9
-16 14 -61 14 -120 0 -86 -2 -96 -24 -118 l-25 -25 -662 7 c-596 6 -663 9
-674 24 -17 23 -17 192 1 234 19 48 241 208 409 297 42 22 47 29 47 59 0 53
-28 149 -66 220 -41 80 -56 172 -31 199 12 13 14 26 8 52 -28 127 56 282 190
349 77 39 180 41 250 6z m1693 -75 c67 1 83 -15 80 -81 -2 -29 -9 -58 -16 -65
-10 -9 -124 -13 -493 -15 -264 -2 -495 0 -514 3 -42 9 -51 21 -51 76 0 61 15
85 48 79 15 -3 45 -2 67 3 22 4 218 6 435 4 217 -3 417 -4 444 -4z m59 -380
c35 -41 36 -114 3 -135 -17 -11 -126 -13 -521 -13 -571 -1 -535 -6 -535 83 0
52 18 84 39 71 5 -4 12 -2 15 3 3 5 86 10 183 10 97 1 178 3 179 4 1 1 139 4
306 6 l304 3 27 -32z m14 -382 c15 -28 16 -56 3 -95 l-11 -30 -507 -6 c-584
-7 -552 -11 -552 77 0 55 9 70 45 79 11 2 243 3 515 1 l494 -4 13 -22z m-16
-348 c15 -9 19 -22 19 -70 0 -35 -5 -64 -13 -72 -20 -19 -501 -24 -536 -6 -46
25 -52 125 -8 146 29 14 511 16 538 2z"/>
</g>
</svg>
