<?xml version="1.0" standalone="no"?>
<!DOCTYPE svg PUBLIC "-//W3C//DTD SVG 20010904//EN"
 "http://www.w3.org/TR/2001/REC-SVG-20010904/DTD/svg10.dtd">
<svg version="1.0" xmlns="http://www.w3.org/2000/svg"
 width="150.000000pt" height="165.000000pt" viewBox="0 0 150.000000 165.000000"
 preserveAspectRatio="xMidYMid meet">

<g transform="translate(0.000000,165.000000) scale(0.100000,-0.100000)"
fill="#000000" stroke="none">
<path d="M0 1132 l0 -519 37 -16 c21 -9 99 -41 173 -71 74 -30 173 -71 220
-90 47 -19 88 -40 92 -48 3 -7 11 -39 18 -70 14 -70 55 -134 106 -165 30 -17
54 -23 102 -23 78 0 125 22 180 85 38 43 61 53 95 39 13 -5 13 -10 -3 -37 -27
-46 -98 -112 -147 -137 -29 -15 -69 -24 -120 -27 -100 -7 -124 1 -472 161
-150 69 -275 126 -277 126 -2 0 -4 -76 -4 -170 l0 -170 750 0 750 0 0 61 0 61
-19 -23 c-18 -22 -20 -23 -38 -7 -10 9 -54 64 -98 122 -53 70 -85 105 -95 102
-8 -3 -42 -14 -74 -25 -160 -56 -338 17 -418 172 -38 74 -48 148 -31 230 23
115 86 197 187 250 56 29 69 31 156 31 112 0 162 -18 235 -85 60 -56 91 -109
110 -193 19 -83 9 -148 -37 -243 -18 -36 -27 -67 -22 -75 4 -7 37 -53 73 -102
l66 -90 3 729 c1 400 1 730 -1 732 -2 2 -204 2 -448 1 l-444 -3 220 -54 c538
-131 621 -153 635 -167 13 -13 9 -32 -39 -172 -92 -269 -113 -322 -124 -322
-7 0 -21 7 -32 16 -20 15 -19 17 33 167 62 176 87 256 81 262 -6 5 -855 225
-871 225 -8 0 -86 -196 -305 -765 -44 -115 -47 -118 -83 -100 l-28 15 17 47
c10 27 56 142 101 258 45 116 91 230 100 255 10 25 40 104 68 175 28 72 54
138 57 148 7 16 -7 17 -214 17 l-221 0 0 -518z m658 232 c12 -8 22 -22 22 -30
0 -16 -26 -19 -35 -4 -3 6 -19 10 -35 10 -23 0 -33 -7 -45 -30 -31 -59 -6
-110 53 -110 41 0 18 -25 -25 -28 -35 -3 -44 1 -67 28 -29 35 -32 65 -12 114
26 61 94 85 144 50z m111 -43 c6 -10 13 -38 17 -62 11 -73 19 -76 40 -13 10
32 25 60 32 62 19 6 14 -53 -11 -128 -19 -57 -25 -65 -47 -65 -19 0 -26 7 -33
35 -4 19 -13 53 -19 75 l-11 40 -22 -60 c-12 -32 -27 -61 -33 -63 -23 -7 -22
22 4 108 24 80 30 90 50 90 13 0 28 -8 33 -19z m231 -59 c30 -15 35 -22 38
-58 4 -51 -15 -69 -70 -68 -35 1 -41 -2 -50 -27 -7 -19 -17 -29 -30 -29 -24 0
-22 15 13 130 23 78 34 84 99 52z m130 -50 c0 -32 -42 -146 -60 -166 -23 -24
-70 -15 -70 14 0 14 6 19 22 17 19 -2 25 8 45 76 19 62 28 77 44 77 12 0 19
-7 19 -18z m-613 -154 c31 -29 30 -71 -3 -97 -53 -42 -114 -16 -114 49 0 65
69 94 117 48z m269 -74 c46 -15 84 -30 84 -34 0 -5 -24 -29 -54 -54 l-53 -46
-67 20 c-53 17 -69 27 -81 50 -13 24 -13 35 -4 53 25 46 56 48 175 11z m-372
-195 c53 -42 25 -119 -45 -121 -63 -2 -91 71 -44 117 30 30 54 31 89 4z m231
-68 l50 -19 3 -66 c2 -50 0 -66 -11 -66 -24 0 -142 43 -159 58 -24 21 -22 61
4 89 26 28 48 29 113 4z"/>
<path d="M950 1214 c-15 -38 -13 -44 14 -44 29 0 44 33 26 55 -18 22 -29 18
-40 -11z"/>
<path d="M973 890 c-143 -57 -217 -220 -164 -362 59 -156 236 -227 384 -154
210 102 211 397 2 503 -68 35 -153 40 -222 13z"/>
</g>
</svg>
